{"title":"Whats Your Number 2011 R5CAM (New Audio) XviD - VISUALiSE","uid":6763824,"size":1146592042,"categoryP":"video","categoryS":"movies","magnet":"?xt=urn:btih:622679ade3c6915e95d528106ee199d06d0f45fa&amp;dn=Whats+Your+Number+2011+R5CAM+%28New+Audio%29+XviD+-+VISUALiSE&amp;tr=udp%3A%2F%2Ftracker.openbittorrent.com%3A80&amp;tr=udp%3A%2F%2Fopen.demonii.com%3A1337&amp;tr=udp%3A%2F%2Ftracker.coppersurfer.tk%3A6969&amp;tr=udp%3A%2F%2Fexodus.desync.com%3A6969","seeders":0,"leechers":1,"uploader":"sceneline","files":5,"time":1319292543,"description":"- &lt;a href=&quot;\nhttp://www.Speed.Cd&quot; rel=&quot;nofollow&quot; target=&quot;_NEW&quot;&gt;\nhttp://www.Speed.Cd&lt;/a&gt;      fast  and The Hottest Private Tracker on the net\n\nPlease Seed back to make the speed Faster!!!\n\n------------------nfo--------------------------\n-[pre]\noooooo     oooo  o8o   .oooooo..o ooooo     ooo       .o.       ooooo         o8o   .oooooo..o oooooooooooo\n`888.     .8'   `&quot;'  d8P'    `Y8 `888'     `8'      .888.      `888'         `&quot;'  d8P'    `Y8 `888'     `8\n `888.   .8'   oooo  Y88bo.       888       8      .8&quot;888.      888         oooo  Y88bo.       888        \n  `888. .8'    `888   `&quot;Y8888o.   888       8     .8' `888.     888         `888   `&quot;Y8888o.   888oooo8    \n   `888.8'      888       `&quot;Y88b  888       8    .88ooo8888.    888          888       `&quot;Y88b  888    &quot;    \n    `888'       888  oo     .d8P  `88.    .8'   .8'     `888.   888       o  888  oo     .d8P  888       o\n     `8'       o888o 8&quot;&quot;88888P'     `YbodP'    o88o     o8888o o888ooooood8 o888o 8&quot;&quot;88888P'  o888ooooood8\n\n\n\n\n\n\nTitle: Whats Your Number 2011 R5CAM (New Audio) XviD - VISUALiSE\nFormat: Xvid\nLanguage: English\nSubtitles: No\nImdb: http://www.imdb.com/title/tt0770703/\n\nPlot:\nA woman looks back at the past twenty men she's had relationships \nwith in her life and wonders if one of them might be her one true \nlove.\n\nSources:\nVideo - Russian DVD9 - Many Thanks guys :P ;) \nAudio - New Audio - Thanks Mate ;) :P\n\n\nRelease Notes: \nOk Here we are bringing you all another release and this time its,\nWhats Your Number 2011 R5CAM (New Audio) XviD - VISUALiSE\nVideo we used the russian dvd 9 in which we ripped and encoded \nto get it looking nice after that we synced our own cam audio\nto the encode which we must say is alot better than the cam audio\nthats out there at min although first 31 seconds and last 3:55 are \nsource audio.\n\nEither way hope you enjoy this release as it much more nicer on the\nears with this audio :P :P :P\n\nInfo:\n\nVideo\n\nFormat                           : AVI\nFormat/Info                      : Audio Video Interleave\nFile size                        : 1.05 GiB\nDuration                         : 1h 41mn\nOverall bit rate                 : 1 470 Kbps\nWriting library                  : VirtualDub build 30586/release\n\nID                               : 0\nFormat                           : MPEG-4 Visual\nFormat profile                   : Advanced Simple@L5\nFormat settings, BVOP            : 2\nFormat settings, QPel            : No\nFormat settings, GMC             : No warppoints\nFormat settings, Matrix          : Default (H.263)\nMuxing mode                      : Packed bitstream\nCodec ID                         : XVID\nCodec ID/Hint                    : XviD\nDuration                         : 1h 41mn\nBit rate                         : 1 333 Kbps\nWidth                            : 720 pixels\nHeight                           : 356 pixels\nDisplay aspect ratio             : 2.022\nFrame rate                       : 25.000 fps\nColor space                      : YUV\nChroma subsampling               : 4:2:0\nBit depth                        : 8 bits\nScan type                        : Progressive\nCompression mode                 : Lossy\nBits/(Pixel*Frame)               : 0.208\nStream size                      : 971 MiB (91%)\nWriting library                  : XviD 64\n\nAudio\n\nID                               : 1\nFormat                           : MPEG Audio\nFormat version                   : Version 1\nFormat profile                   : Layer 3\nMode                             : Joint stereo\nMode extension                   : MS Stereo\nCodec ID                         : 55\nCodec ID/Hint                    : MP3\nDuration                         : 1h 41mn\nBit rate mode                    : Constant\nBit rate                         : 128 Kbps\nChannel(s)                       : 2 channels\nSampling rate                    : 44.1 KHz\nCompression mode                 : Lossy\nStream size                      : 93.3 MiB (9%)\nAlignment                        : Split accross interleaves\nInterleave, duration             : 40 ms (1.00 video frame)\nWriting library                  : LAME3.98r\nEncoding settings                : -m j -V 4 -q 2 -lowpass 17 -b 128\n\nScreens:\n[IMG]http://i.imgur.com/tAyKl.png[/IMG]\n\n[IMG]http://i.imgur.com/uSaVm.png[/IMG]\n\n[IMG]http://i.imgur.com/SQNvA.png[/IMG]\n\n[IMG]http://i.imgur.com/u2LPz.png[/IMG]\n\nGreetz:\nEach and Every Scene / P2P Group Past and Present and All Who Have Made It What It Is 2Day  ","torrent":{"xt":"urn:btih:622679ade3c6915e95d528106ee199d06d0f45fa","amp;dn":"Whats+Your+Number+2011+R5CAM+%28New+Audio%29+XviD+-+VISUALiSE","amp;tr":["udp%3A%2F%2Ftracker.openbittorrent.com%3A80","udp%3A%2F%2Fopen.demonii.com%3A1337","udp%3A%2F%2Ftracker.coppersurfer.tk%3A6969","udp%3A%2F%2Fexodus.desync.com%3A6969"],"infoHash":"622679ade3c6915e95d528106ee199d06d0f45fa","infoHashBuffer":{"type":"Buffer","data":[98,38,121,173,227,198,145,94,149,213,40,16,110,225,153,208,109,15,69,250]},"announce":[],"urlList":[]}}